<svg width="1728" height="1117" viewBox="0 0 1728 1117" fill="none" xmlns="http://www.w3.org/2000/svg">
<g opacity="0.1" clip-path="url(#clip0_948_1956)">
<mask id="mask0_948_1956" style="mask-type:luminance" maskUnits="userSpaceOnUse" x="-2" y="0" width="1730" height="1117">
<path d="M1727.53 0H-2V1116.7H1727.53V0Z" fill="white"/>
</mask>
<g mask="url(#mask0_948_1956)">
<path d="M1858.61 1263.08H-133.079V-146.382H1858.61L1858.61 1263.08ZM-130.505 1260.17H1856.04V-143.474H-130.505V1260.17Z" fill="#B3B3B3"/>
<path d="M1857.33 1049.19H-131.792V1052.1H1857.33V1049.19Z" fill="#B3B3B3"/>
<path d="M1857.33 978.861H-131.792V981.769H1857.33V978.861Z" fill="#B3B3B3"/>
<path d="M1857.33 908.534H-131.792V911.442H1857.33V908.534Z" fill="#B3B3B3"/>
<path d="M1857.33 838.206H-131.792V841.114H1857.33V838.206Z" fill="#B3B3B3"/>
<path d="M1857.33 767.878H-131.792V770.786H1857.33V767.878Z" fill="#B3B3B3"/>
<path d="M1857.33 697.551H-131.792V700.459H1857.33V697.551Z" fill="#B3B3B3"/>
<path d="M1857.33 627.223H-131.792V630.131H1857.33V627.223Z" fill="#B3B3B3"/>
<path d="M1857.33 556.896H-131.792V559.804H1857.33V556.896Z" fill="#B3B3B3"/>
<path d="M1857.33 486.568H-131.792V489.476H1857.33V486.568Z" fill="#B3B3B3"/>
<path d="M1857.33 416.239H-131.792V419.147H1857.33V416.239Z" fill="#B3B3B3"/>
<path d="M1857.33 345.911H-131.792V348.819H1857.33V345.911Z" fill="#B3B3B3"/>
<path d="M1857.33 275.583H-131.792V278.492H1857.33V275.583Z" fill="#B3B3B3"/>
<path d="M1857.33 205.256H-131.792V208.164H1857.33V205.256Z" fill="#B3B3B3"/>
<path d="M1857.33 134.928H-131.792V137.837H1857.33V134.928Z" fill="#B3B3B3"/>
<path d="M1857.33 64.6007H-131.792V67.5088H1857.33V64.6007Z" fill="#B3B3B3"/>
<path d="M1677.78 -144.928H1675.21V1261.63H1677.78V-144.928Z" fill="#B3B3B3"/>
<path d="M1617.51 -144.928H1614.93V1261.63H1617.51V-144.928Z" fill="#B3B3B3"/>
<path d="M1557.23 -144.928H1554.66V1261.63H1557.23V-144.928Z" fill="#B3B3B3"/>
<path d="M1496.95 -144.928H1494.38V1261.63H1496.95V-144.928Z" fill="#B3B3B3"/>
<path d="M1436.68 -144.928H1434.1V1261.63H1436.68V-144.928Z" fill="#B3B3B3"/>
<path d="M1376.4 -144.928H1373.83V1261.63H1376.4V-144.928Z" fill="#B3B3B3"/>
<path d="M1316.13 -144.928H1313.55V1261.63H1316.13V-144.928Z" fill="#B3B3B3"/>
<path d="M1255.85 -144.928H1253.28V1261.63H1255.85V-144.928Z" fill="#B3B3B3"/>
<path d="M1195.57 -144.928H1193V1261.63H1195.57V-144.928Z" fill="#B3B3B3"/>
<path d="M1135.3 -144.928H1132.72V1261.63H1135.3V-144.928Z" fill="#B3B3B3"/>
<path d="M1075.02 -144.928H1072.45V1261.63H1075.02V-144.928Z" fill="#B3B3B3"/>
<path d="M1014.74 -144.928H1012.17V1261.63H1014.74V-144.928Z" fill="#B3B3B3"/>
<path d="M954.468 -144.928H951.895V1261.63H954.468V-144.928Z" fill="#B3B3B3"/>
<path d="M894.192 -144.928H891.618V1261.63H894.192V-144.928Z" fill="#B3B3B3"/>
<path d="M833.915 -144.928H831.342V1261.63H833.915V-144.928Z" fill="#B3B3B3"/>
<path d="M773.64 -144.928H771.066V1261.63H773.64V-144.928Z" fill="#B3B3B3"/>
<path d="M713.364 -144.928H710.79V1261.63H713.364V-144.928Z" fill="#B3B3B3"/>
<path d="M653.087 -144.928H650.514V1261.63H653.087V-144.928Z" fill="#B3B3B3"/>
<path d="M592.81 -144.928H590.236V1261.63H592.81V-144.928Z" fill="#B3B3B3"/>
<path d="M532.534 -144.928H529.96V1261.63H532.534V-144.928Z" fill="#B3B3B3"/>
<path d="M472.257 -144.928H469.684V1261.63H472.257V-144.928Z" fill="#B3B3B3"/>
<path d="M411.982 -144.928H409.408V1261.63H411.982V-144.928Z" fill="#B3B3B3"/>
<path d="M351.706 -144.928H349.132V1261.63H351.706V-144.928Z" fill="#B3B3B3"/>
<path d="M291.429 -144.928H288.855V1261.63H291.429V-144.928Z" fill="#B3B3B3"/>
<path d="M231.153 -144.928H228.579V1261.63H231.153V-144.928Z" fill="#B3B3B3"/>
<path d="M170.877 -144.928H168.304V1261.63H170.877V-144.928Z" fill="#B3B3B3"/>
<path d="M110.601 -144.928H108.027V1261.63H110.601V-144.928Z" fill="#B3B3B3"/>
<path d="M50.3228 -144.928H47.749V1261.63H50.3228V-144.928Z" fill="#B3B3B3"/>
</g>
</g>
<defs>
<clipPath id="clip0_948_1956">
<rect width="1730" height="1117" fill="white" transform="translate(-2)"/>
</clipPath>
</defs>
</svg>
